<mxfile host="65bd71144e">
    <diagram id="J5JNgZvqTxx0GcSqgW6s" name="Page-1">
        <mxGraphModel dx="1558" dy="729" grid="1" gridSize="10" guides="1" tooltips="1" connect="1" arrows="1" fold="1" page="1" pageScale="1" pageWidth="850" pageHeight="1100" math="0" shadow="0">
            <root>
                <mxCell id="0"/>
                <mxCell id="1" parent="0"/>
                <mxCell id="2" value="" style="ellipse;html=1;shape=startState;fillColor=#000000;strokeColor=#ff0000;" parent="1" vertex="1">
                    <mxGeometry x="500" y="230" width="30" height="30" as="geometry"/>
                </mxCell>
                <mxCell id="3" value="" style="edgeStyle=orthogonalEdgeStyle;html=1;verticalAlign=bottom;endArrow=open;endSize=8;strokeColor=#ff0000;" parent="1" source="2" edge="1">
                    <mxGeometry relative="1" as="geometry">
                        <mxPoint x="515" y="320" as="targetPoint"/>
                    </mxGeometry>
                </mxCell>
                <mxCell id="4" value="Подготовка на всички необходими документи, които да бъдат приложени към заявлението" style="rounded=1;whiteSpace=wrap;html=1;arcSize=40;fontColor=#000000;fillColor=#ffffc0;strokeColor=#ff0000;" parent="1" vertex="1">
                    <mxGeometry x="425" y="320" width="180" height="60" as="geometry"/>
                </mxCell>
                <mxCell id="5" value="" style="edgeStyle=orthogonalEdgeStyle;html=1;verticalAlign=bottom;endArrow=open;endSize=8;strokeColor=#ff0000;" parent="1" source="4" edge="1">
                    <mxGeometry relative="1" as="geometry">
                        <mxPoint x="515" y="420" as="targetPoint"/>
                    </mxGeometry>
                </mxCell>
                <mxCell id="6" value="Подаване на заявлвние по образец за продажба, дарение или замяна на огнестрелно оръжие и промяна на разрешение" style="rounded=1;whiteSpace=wrap;html=1;arcSize=40;fontColor=#000000;fillColor=#ffffc0;strokeColor=#ff0000;" parent="1" vertex="1">
                    <mxGeometry x="395" y="420" width="240" height="80" as="geometry"/>
                </mxCell>
                <mxCell id="7" value="" style="edgeStyle=orthogonalEdgeStyle;html=1;verticalAlign=bottom;endArrow=open;endSize=8;strokeColor=#ff0000;" parent="1" source="6" edge="1">
                    <mxGeometry relative="1" as="geometry">
                        <mxPoint x="515" y="550" as="targetPoint"/>
                    </mxGeometry>
                </mxCell>
                <mxCell id="8" value="&lt;font style=&quot;font-size: 12px;&quot;&gt;Проверка на заявление дали отговаря на всички условия&lt;/font&gt;" style="rhombus;whiteSpace=wrap;html=1;fillColor=#ffffc0;strokeColor=#ff0000;labelBackgroundColor=none;fontFamily=Helvetica;fontSize=17;fontColor=#000000;" vertex="1" parent="1">
                    <mxGeometry x="430" y="550" width="160" height="80" as="geometry"/>
                </mxCell>
                <mxCell id="9" value="[не отговаря]" style="edgeStyle=orthogonalEdgeStyle;html=1;align=left;verticalAlign=bottom;endArrow=open;endSize=8;strokeColor=#ff0000;fontFamily=Helvetica;fontSize=17;fontColor=#000000;" edge="1" source="8" parent="1">
                    <mxGeometry x="-1" relative="1" as="geometry">
                        <mxPoint x="720" y="590" as="targetPoint"/>
                    </mxGeometry>
                </mxCell>
                <mxCell id="10" value="[отговаря]" style="edgeStyle=orthogonalEdgeStyle;html=1;align=left;verticalAlign=top;endArrow=open;endSize=8;strokeColor=#ff0000;fontFamily=Helvetica;fontSize=17;fontColor=#000000;" edge="1" source="8" parent="1">
                    <mxGeometry x="-1" relative="1" as="geometry">
                        <mxPoint x="510" y="710" as="targetPoint"/>
                    </mxGeometry>
                </mxCell>
                <mxCell id="11" value="Проверено" style="rounded=1;whiteSpace=wrap;html=1;arcSize=40;fontColor=#000000;fillColor=#ffffc0;strokeColor=#ff0000;labelBackgroundColor=none;fontFamily=Helvetica;fontSize=12;" vertex="1" parent="1">
                    <mxGeometry x="450" y="710" width="120" height="40" as="geometry"/>
                </mxCell>
                <mxCell id="12" value="" style="edgeStyle=orthogonalEdgeStyle;html=1;verticalAlign=bottom;endArrow=open;endSize=8;strokeColor=#ff0000;fontFamily=Helvetica;fontSize=12;fontColor=#000000;" edge="1" source="11" parent="1">
                    <mxGeometry relative="1" as="geometry">
                        <mxPoint x="510" y="790" as="targetPoint"/>
                    </mxGeometry>
                </mxCell>
                <mxCell id="13" value="Издаване на разрешение" style="rounded=1;whiteSpace=wrap;html=1;arcSize=40;fontColor=#000000;fillColor=#ffffc0;strokeColor=#ff0000;labelBackgroundColor=none;fontFamily=Helvetica;fontSize=12;" vertex="1" parent="1">
                    <mxGeometry x="450" y="790" width="120" height="40" as="geometry"/>
                </mxCell>
                <mxCell id="14" value="" style="edgeStyle=orthogonalEdgeStyle;html=1;verticalAlign=bottom;endArrow=open;endSize=8;strokeColor=#ff0000;fontFamily=Helvetica;fontSize=12;fontColor=#000000;" edge="1" source="13" parent="1">
                    <mxGeometry relative="1" as="geometry">
                        <mxPoint x="510" y="870" as="targetPoint"/>
                    </mxGeometry>
                </mxCell>
                <mxCell id="15" value="" style="ellipse;html=1;shape=endState;fillColor=#000000;strokeColor=#ff0000;labelBackgroundColor=none;fontFamily=Helvetica;fontSize=12;fontColor=#000000;" vertex="1" parent="1">
                    <mxGeometry x="495" y="870" width="30" height="30" as="geometry"/>
                </mxCell>
                <mxCell id="16" value="Отбелязана отметка за преостявяне на документ за отказ" style="rhombus;whiteSpace=wrap;html=1;fillColor=#ffffc0;strokeColor=#ff0000;labelBackgroundColor=none;fontFamily=Helvetica;fontSize=12;fontColor=#000000;" vertex="1" parent="1">
                    <mxGeometry x="720" y="545" width="180" height="90" as="geometry"/>
                </mxCell>
                <mxCell id="17" value="&lt;font style=&quot;font-size: 14px;&quot;&gt;[не]&lt;/font&gt;" style="edgeStyle=orthogonalEdgeStyle;html=1;align=left;verticalAlign=bottom;endArrow=open;endSize=8;strokeColor=#ff0000;fontFamily=Helvetica;fontSize=12;fontColor=#000000;" edge="1" source="16" parent="1">
                    <mxGeometry x="-1" relative="1" as="geometry">
                        <mxPoint x="980" y="590" as="targetPoint"/>
                    </mxGeometry>
                </mxCell>
                <mxCell id="18" value="&lt;font style=&quot;font-size: 14px;&quot;&gt;[да]&lt;/font&gt;" style="edgeStyle=orthogonalEdgeStyle;html=1;align=left;verticalAlign=top;endArrow=open;endSize=8;strokeColor=#ff0000;fontFamily=Helvetica;fontSize=12;fontColor=#000000;" edge="1" source="16" parent="1">
                    <mxGeometry x="-1" relative="1" as="geometry">
                        <mxPoint x="810" y="710" as="targetPoint"/>
                    </mxGeometry>
                </mxCell>
                <mxCell id="19" value="Получаване на електронен документ за отказ" style="rounded=1;whiteSpace=wrap;html=1;arcSize=40;fontColor=#000000;fillColor=#ffffc0;strokeColor=#ff0000;labelBackgroundColor=none;fontFamily=Helvetica;fontSize=14;" vertex="1" parent="1">
                    <mxGeometry x="705" y="710" width="210" height="70" as="geometry"/>
                </mxCell>
                <mxCell id="20" value="" style="edgeStyle=orthogonalEdgeStyle;html=1;verticalAlign=bottom;endArrow=open;endSize=8;strokeColor=#ff0000;fontFamily=Helvetica;fontSize=14;fontColor=#000000;" edge="1" source="19" parent="1">
                    <mxGeometry relative="1" as="geometry">
                        <mxPoint x="810" y="840" as="targetPoint"/>
                    </mxGeometry>
                </mxCell>
                <mxCell id="21" value="" style="ellipse;html=1;shape=endState;fillColor=#000000;strokeColor=#ff0000;labelBackgroundColor=none;fontFamily=Helvetica;fontSize=14;fontColor=#000000;" vertex="1" parent="1">
                    <mxGeometry x="795" y="841" width="30" height="30" as="geometry"/>
                </mxCell>
                <mxCell id="22" value="Получаване документ за отказ на хартиен носител" style="rounded=1;whiteSpace=wrap;html=1;arcSize=40;fontColor=#000000;fillColor=#ffffc0;strokeColor=#ff0000;labelBackgroundColor=none;fontFamily=Helvetica;fontSize=14;" vertex="1" parent="1">
                    <mxGeometry x="980" y="560" width="180" height="60" as="geometry"/>
                </mxCell>
                <mxCell id="26" value="" style="edgeStyle=orthogonalEdgeStyle;rounded=0;orthogonalLoop=1;jettySize=auto;html=1;endArrow=open;endFill=0;fillColor=#f8cecc;strokeColor=#FF0000;endSize=8;" edge="1" parent="1">
                    <mxGeometry relative="1" as="geometry">
                        <mxPoint x="1160" y="589.87" as="sourcePoint"/>
                        <mxPoint x="1280" y="589.58" as="targetPoint"/>
                        <Array as="points">
                            <mxPoint x="1220" y="589.58"/>
                            <mxPoint x="1280" y="589.58"/>
                        </Array>
                    </mxGeometry>
                </mxCell>
                <mxCell id="27" value="" style="ellipse;html=1;shape=endState;fillColor=#000000;strokeColor=#ff0000;labelBackgroundColor=none;fontFamily=Helvetica;fontSize=14;fontColor=#000000;" vertex="1" parent="1">
                    <mxGeometry x="1275" y="575" width="30" height="30" as="geometry"/>
                </mxCell>
            </root>
        </mxGraphModel>
    </diagram>
</mxfile>